<svg xmlns="http://www.w3.org/2000/svg" width="136.517" height="85.323" viewBox="0 0 136.517 85.323">
  <path id="Path_123" data-name="Path 123" d="M136.517,3.413V83.048a2.447,2.447,0,0,1-2.275,2.275H133.1c-1.138,0-1.138,0-2.275-1.138L102.388,55.745V77.36c0,2.275-1.138,3.413-2.275,5.688-2.275,1.138-3.413,2.275-6.826,2.275H9.1a8.69,8.69,0,0,1-5.688-2.275C1.138,80.773,0,79.635,0,77.36V9.1A8.69,8.69,0,0,1,2.275,3.413C4.551,1.138,5.688,0,9.1,0H94.425a8.69,8.69,0,0,1,5.688,2.275c1.138,2.275,2.275,4.551,2.275,6.826V30.716L131.967,1.138C131.967,0,133.1,0,134.242,0,135.38,1.138,136.517,1.138,136.517,3.413Z" fill="#fff"/>
</svg>
