<svg id="Group_801" data-name="Group 801" xmlns="http://www.w3.org/2000/svg" width="25.756" height="27.822" viewBox="0 0 25.756 27.822">
  <path id="Path_2181" data-name="Path 2181" d="M91.156,39.238a6.121,6.121,0,1,0-6.121-6.121A6.121,6.121,0,0,0,91.156,39.238Z" transform="translate(-79.788 -26.996)" fill="#38bfa7"/>
  <path id="Path_2182" data-name="Path 2182" d="M46.477,148.907a2.469,2.469,0,0,1,.473-1.362,2.513,2.513,0,0,1,3.859-.233l3.448,3.678,6.109-6.762a15.1,15.1,0,0,0-8.53-2.5,14.46,14.46,0,0,0-11.165,4.83.882.882,0,0,0-.179.541v4.777a1.765,1.765,0,0,0,.5,1.235,1.792,1.792,0,0,0,1.229.538H49.88l-2.742-2.925a2.479,2.479,0,0,1-.661-1.817Z" transform="translate(-40.493 -128.21)" fill="#38bfa7"/>
  <path id="Path_2183" data-name="Path 2183" d="M200.135,201.26A1.925,1.925,0,0,0,202,199.335v-3.62l-4.939,5.545Z" transform="translate(-178.621 -175.841)" fill="#38bfa7"/>
  <path id="Path_2184" data-name="Path 2184" d="M123.126,140.6a.9.9,0,0,0-1.27.071l-10.4,11.569-4.652-4.974a.854.854,0,0,0-1.526.534.888.888,0,0,0,.265.632l5.976,6.407,11.666-13.01a.886.886,0,0,0-.063-1.228Z" transform="translate(-97.649 -127.018)" fill="#38bfa7"/>
</svg>
