<svg width="20" height="20" viewBox="0 0 20 20" fill="none" xmlns="http://www.w3.org/2000/svg">
<path d="M9.16667 14.1665H10.8333V9.1665H9.16667V14.1665ZM10 7.49984C10.2361 7.49984 10.4342 7.41984 10.5942 7.25984C10.7536 7.10039 10.8333 6.90262 10.8333 6.6665C10.8333 6.43039 10.7536 6.23234 10.5942 6.07234C10.4342 5.91289 10.2361 5.83317 10 5.83317C9.76389 5.83317 9.56612 5.91289 9.40667 6.07234C9.24667 6.23234 9.16667 6.43039 9.16667 6.6665C9.16667 6.90262 9.24667 7.10039 9.40667 7.25984C9.56612 7.41984 9.76389 7.49984 10 7.49984ZM10 18.3332C8.84723 18.3332 7.76389 18.1143 6.75001 17.6765C5.73612 17.2393 4.85417 16.6457 4.10417 15.8957C3.35417 15.1457 2.76056 14.2637 2.32334 13.2498C1.88556 12.2359 1.66667 11.1526 1.66667 9.99984C1.66667 8.84706 1.88556 7.76373 2.32334 6.74984C2.76056 5.73595 3.35417 4.854 4.10417 4.104C4.85417 3.354 5.73612 2.76011 6.75001 2.32234C7.76389 1.88511 8.84723 1.6665 10 1.6665C11.1528 1.6665 12.2361 1.88511 13.25 2.32234C14.2639 2.76011 15.1458 3.354 15.8958 4.104C16.6458 4.854 17.2394 5.73595 17.6767 6.74984C18.1144 7.76373 18.3333 8.84706 18.3333 9.99984C18.3333 11.1526 18.1144 12.2359 17.6767 13.2498C17.2394 14.2637 16.6458 15.1457 15.8958 15.8957C15.1458 16.6457 14.2639 17.2393 13.25 17.6765C12.2361 18.1143 11.1528 18.3332 10 18.3332ZM10 16.6665C11.8611 16.6665 13.4375 16.0207 14.7292 14.729C16.0208 13.4373 16.6667 11.8609 16.6667 9.99984C16.6667 8.13873 16.0208 6.56234 14.7292 5.27067C13.4375 3.979 11.8611 3.33317 10 3.33317C8.13889 3.33317 6.5625 3.979 5.27084 5.27067C3.97917 6.56234 3.33334 8.13873 3.33334 9.99984C3.33334 11.8609 3.97917 13.4373 5.27084 14.729C6.5625 16.0207 8.13889 16.6665 10 16.6665Z" fill="#172957"/>
</svg>
