<svg id="Group_712" data-name="Group 712" xmlns="http://www.w3.org/2000/svg" width="21.42" height="21.054" viewBox="0 0 21.42 21.054">
  <path id="Path_2141" data-name="Path 2141" d="M193.308,36.82l-7.227-7.258a.649.649,0,0,1,0-.949l1.9-1.9a.649.649,0,0,1,.95,0l9.83,9.83a.651.651,0,0,1,.153.216.655.655,0,0,1,0,.518.651.651,0,0,1-.153.216l-9.83,9.861a.648.648,0,0,1-.95,0l-1.9-1.9a.649.649,0,0,1,0-.949l7.227-7.227a.287.287,0,0,0,.085-.1.287.287,0,0,0,0-.257A.288.288,0,0,0,193.308,36.82Z" transform="translate(-177.545 -26.508)" fill="#172957"/>
  <path id="Path_2142" data-name="Path 2142" d="M184.241,36.82l-7.227-7.258a.652.652,0,0,1-.153-.216.655.655,0,0,1,0-.518.651.651,0,0,1,.153-.216l1.9-1.9a.647.647,0,0,1,.949,0l9.83,9.83a.649.649,0,0,1,0,.949l-9.83,9.861a.648.648,0,0,1-.949,0l-1.9-1.9a.652.652,0,0,1-.153-.216.655.655,0,0,1,0-.518.651.651,0,0,1,.153-.216l7.227-7.227a.333.333,0,0,0,0-.459Z" transform="translate(-176.808 -26.508)" fill="#172957"/>
</svg>
