<svg xmlns="http://www.w3.org/2000/svg" width="34" height="30"><defs><filter id="a" x="0" y="0" width="34" height="30" filterUnits="userSpaceOnUse"><feOffset dy="1"/><feGaussianBlur stdDeviation="1" result="blur"/><feFlood flood-opacity=".161"/><feComposite operator="in" in2="blur"/><feComposite in="SourceGraphic"/></filter></defs><g filter="url(#a)" data-name="Group 781"><path data-name="Path 2174" d="M30.029 8.205A3.724 3.724 0 0 1 27.38 9.3a3.812 3.812 0 0 1-.891-.1l-3.13 5.731.105.1a3.676 3.676 0 0 1 0 5.244 3.764 3.764 0 0 1-5.3 0 3.684 3.684 0 0 1-.586-4.513l-2.356-2.332a3.863 3.863 0 0 1-1.911.51 3.811 3.811 0 0 1-.891-.1l-3.13 5.731.105.1a3.676 3.676 0 0 1 0 5.244 3.765 3.765 0 0 1-5.3 0 3.676 3.676 0 0 1 0-5.244 3.789 3.789 0 0 1 3.54-.986l3.135-5.735-.105-.1a3.676 3.676 0 0 1 0-5.244 3.78 3.78 0 0 1 4.955-.315 3.687 3.687 0 0 1 .929 4.828l2.351 2.328a3.832 3.832 0 0 1 2.8-.406l3.13-5.731-.106-.1a3.676 3.676 0 0 1 0-5.244 3.779 3.779 0 0 1 5.171.126 3.685 3.685 0 0 1 .127 5.118Z" fill="#172957"/></g></svg>