<svg xmlns="http://www.w3.org/2000/svg" width="24.722" height="27.645" viewBox="0 0 24.722 27.645">
  <path id="Path_2180" data-name="Path 2180" d="M5.083,1.643A2.471,2.471,0,0,1,7.414,0h4.943a2.471,2.471,0,0,1,2.331,1.643H17.3a2.468,2.468,0,0,1,2.471,2.464v7.4a6.376,6.376,0,0,0-1.648.284V4.107a.823.823,0,0,0-.824-.821H14.688a2.471,2.471,0,0,1-2.331,1.643H7.414A2.471,2.471,0,0,1,5.083,3.286H2.471a.823.823,0,0,0-.824.821V23.823a.823.823,0,0,0,.824.822H10.8l1.648,1.643H2.471A2.468,2.468,0,0,1,0,23.823V4.107A2.468,2.468,0,0,1,2.471,1.643Zm2.331,0a.821.821,0,1,0,0,1.643h4.943a.821.821,0,1,0,0-1.643Zm2.2,12.872a4.7,4.7,0,0,1,6.642,0l.224.223.226-.223a4.69,4.69,0,1,1,6.641,6.623L17.063,27.4a.825.825,0,0,1-1.165,0L9.614,21.138a4.674,4.674,0,0,1,0-6.623Z" fill="#3e66b9"/>
</svg>
