<svg width="26" height="22" viewBox="0 0 26 22" fill="none" xmlns="http://www.w3.org/2000/svg">
<g clip-path="url(#clip0_42_410)">
<path d="M6.72181 22H0.987939C0.442342 22 0 21.5631 0 21.0242V11.1077C0 10.5688 0.442342 10.1319 0.987939 10.1319H6.72181C7.26741 10.1319 7.70975 10.5688 7.70975 11.1077V21.0242C7.70975 21.5631 7.26741 22 6.72181 22Z" fill="#172957"/>
<path d="M15.8669 22H10.1331C9.58748 22 9.14514 21.5631 9.14514 21.0242V6.18966C9.14514 5.65077 9.58748 5.21387 10.1331 5.21387H15.8669C16.4125 5.21387 16.8549 5.65077 16.8549 6.18966V21.0242C16.8549 21.5631 16.4125 22 15.8669 22Z" fill="#172957"/>
<path d="M25.0121 22H19.2782C18.7326 22 18.2903 21.5631 18.2903 21.0242V0.975791C18.2903 0.436903 18.7326 0 19.2782 0H25.0121C25.5577 0 26 0.436903 26 0.975791V21.023C26 21.5618 25.5577 21.9987 25.0121 21.9987" fill="#172957"/>
</g>
<defs>
<clipPath id="clip0_42_410">
<rect width="26" height="22" fill="white"/>
</clipPath>
</defs>
</svg>
