<?xml version="1.0" encoding="UTF-8"?><svg id="Layer_2" xmlns="http://www.w3.org/2000/svg" viewBox="0 0 1026 176.5"><g id="Layer_2-2"><g id="Layer_1-2"><g id="Layer_2-2"><g><path d="M620.4,53.2c9.4,9.4,14.1,23.4,14.1,42.1,0,0,.1,49.2,0,58.5-.1,6.8-5.3,14.1-14.1,14.2h-22.7V101c0-10.1-2.1-17.6-6.2-22.5-4.2-5-10.1-7.4-17.8-7.4-8.7,0-15.5,2.8-20.5,8.4-5.1,5.6-7.6,13.9-7.6,24.9,0,0,.2,43.1,0,49.8-.3,8.1-6.3,13.9-14.2,13.9-8.2,.1-22.6,0-22.6,0V101.1c0-20-8-30-24.1-30-8.5,0-15.3,2.8-20.3,8.4s-7.6,13.9-7.6,24.9c0,0,.1,41.7,0,49.9-.1,7.7-6.3,13.8-14.3,13.8h-22.5s.1-105.7,0-113.3c-.1-7,6.2-13.1,14.5-13.3,6.8-.2,20.6-.4,20.6-.4v14.6c4.7-5.3,10.5-9.4,17.4-12.3,6.9-2.8,14.3-4.3,22.5-4.3,9,0,17.1,1.8,24.3,5.3s13.1,8.7,17.5,15.5c5.2-6.6,11.7-11.7,19.7-15.3,7.9-3.6,16.6-5.4,26.1-5.4,15.9,0,28.5,4.7,37.8,14Z" fill="#fff"/><path d="M684.6,161.2c-10.6-5.6-18.9-13.3-24.9-23.2s-9-21.2-9-33.8,3-23.8,9-33.8c6-9.9,14.3-17.7,24.9-23.3,10.6-5.6,22.6-8.4,36-8.4s25.3,2.8,35.9,8.4c10.6,5.6,18.8,13.3,24.8,23.3,6,10,9,21.2,9,33.8s-3,23.8-9,33.8c-6,9.9-14.2,17.7-24.8,23.2-10.6,5.6-22.5,8.4-35.9,8.4s-25.4-2.8-36-8.4Zm59.2-31.4c6.1-6.4,9.1-14.9,9.1-25.6s-3-19.2-9.1-25.6-13.8-9.6-23.2-9.6-17.3,3.2-23.4,9.6c-6.1,6.4-9.2,14.9-9.2,25.6s3.1,19.2,9.2,25.6c6.1,6.4,13.9,9.6,23.4,9.6,9.4-.1,17.2-3.2,23.2-9.6Z" fill="#fff"/><path d="M935.3,40.7c-1.1,1.2-48.5,114.9-48.5,114.9-3.1,7.3-10.3,12.1-18.2,12.1h-24.3c-.4,0-.7-.2-.8-.5l-45.4-108s-1.2-2.6-2.4-5.7c-1.6-4-.5-8.7,3.1-11.2,2-1.4,4.1-1.5,6.5-1.6,3-.1,19.4-.1,24.6,0,0,.5,1,4.9,1.1,5.2,.6,2.1,1.3,4.2,2.1,6.3,2,5.7,4.2,11.4,6.4,17,2.6,6.6,5.3,13.1,8,19.7,2.6,6.2,5.2,12.5,7.9,18.7,2,4.7,4,9.3,5.9,14,.6,1.3,1.1,2.7,1.7,4,.2,.6,1,.6,1.2,0,4.3-10.2,29.7-70.6,31.5-74.9,2.4-5.7,8.2-10,14.8-10h24.8Z" fill="#fff"/><path d="M1000.1,43.5c7.5-3.1,16.1-4.7,25.9-4.7v22.8c0,4.8-2.8,10.1-9.9,10.7-8.8,.6-17.1,3-23.1,9-6,5.9-9,14.8-9,26.5v43.9c0,8.9-7.3,16-16.3,16h-19.9c-.4,0-.6,.1-.6-.3V56c0-2.8,.8-5.6,2.3-8,1.4-2.3,3.4-4.2,5.8-5.5,1.7-.9,3.5-1.5,5.4-1.8,1.5-.2,3-.2,4.5-.2h17.2v17c4.3-6.2,10.2-10.8,17.7-14h0Z" fill="#fff"/></g><g><path d="M99.6,81.4c.6-11.7,3.4-23,8.4-33.6s11.8-20.1,20.4-28c1.5-1.4,3-2.7,4.6-4L0,64.2l29.2,80.3,75.7-27.6h0c-4.1-11.4-5.9-23.4-5.3-35.5Z" fill="#fff"/><path d="M271.8,61.7L111.1,120.2c16.2,44.4,65.2,67.3,109.6,51.1,44.4-16.1,67.3-65.2,51.1-109.6h0Z" fill="#fff"/><path d="M269.6,54.9c-.1-.2-.2-.4-.2-.6-.2-.4-.4-.9-.5-1.3l-.3-.6c-.2-.5-.4-.9-.6-1.4-.1-.2-.1-.3-.2-.5-.3-.6-.5-1.2-.8-1.8-.1-.1-.1-.3-.2-.4-.2-.5-.5-.9-.7-1.4l-.3-.6-.6-1.2-.3-.6c-.3-.5-.5-.9-.8-1.4-.1-.1-.1-.2-.2-.3-.3-.5-.6-1.1-1-1.6-.1-.2-.2-.4-.3-.5-.2-.4-.5-.7-.7-1.1-.1-.2-.3-.4-.4-.6-.2-.4-.5-.7-.7-1.1-.1-.2-.2-.4-.4-.5-.4-.5-.7-1-1.1-1.5-.1-.1-.2-.2-.3-.4l-.9-1.2c-.1-.2-.3-.4-.4-.6-.2-.3-.5-.6-.7-.9-.2-.2-.3-.4-.5-.6-.3-.3-.6-.7-.8-1-.1-.2-.3-.3-.4-.5-.4-.5-.8-.9-1.2-1.4l-.5-.5c-.3-.3-.5-.6-.8-.9-.2-.2-.4-.4-.5-.6-.3-.3-.5-.6-.8-.8l-.5-.5-1-1-.6-.6c-.3-.3-.7-.6-1-1-.2-.2-.4-.4-.6-.5-.3-.2-.5-.5-.8-.7-.2-.2-.4-.4-.6-.5-.3-.2-.6-.5-.9-.7-.2-.2-.4-.3-.6-.5-.4-.4-.9-.7-1.3-1.1-.2-.1-.4-.3-.6-.4-.3-.2-.6-.5-.9-.7-.2-.2-.4-.3-.7-.5s-.6-.4-.8-.6-.4-.3-.7-.5-.7-.5-1-.7c-.2-.2-.4-.3-.7-.5-.4-.3-.9-.6-1.3-.9-.2-.1-.4-.3-.7-.4l-.9-.6c-.2-.1-.5-.3-.7-.4l-.9-.6c-.2-.1-.4-.3-.7-.4l-1.5-.9-.6-.3c-.4-.2-.7-.4-1.1-.6-.2-.1-.5-.2-.7-.4-.3-.2-.6-.3-1-.5-.2-.1-.5-.2-.7-.4-.4-.2-.7-.3-1.1-.5l-.6-.3c-.5-.2-1.1-.5-1.6-.7-.2-.1-.4-.2-.7-.3-.4-.2-.7-.3-1.1-.4-.2-.1-.5-.2-.7-.3-.3-.1-.7-.3-1.1-.4-.2-.1-.5-.2-.7-.3-.5-.2-1-.4-1.4-.5-.2-.1-.4-.1-.6-.2-.5-.2-.9-.3-1.4-.5-.2-.1-.5-.1-.7-.2-.4-.1-.7-.2-1.1-.4-.2-.1-.5-.1-.7-.2-.4-.1-.8-.2-1.2-.4-.2-.1-.4-.1-.6-.2-.6-.2-1.2-.3-1.7-.5-.2,0-.3-.1-.5-.1-.4-.1-.9-.2-1.3-.3-.2-.1-.4-.1-.7-.2l-1.2-.3c-.2,0-.4-.1-.7-.1l-1.5-.3c-.1,0-.2,0-.3-.1l-1.8-.3c-.2,0-.4-.1-.6-.1-.4-.1-.9-.1-1.3-.2-.2,0-.4-.1-.7-.1-.4-.1-.9-.1-1.3-.2-.2,0-.4,0-.6-.1-.6-.1-1.2-.1-1.9-.2h-.3c-.5,0-1.1-.1-1.6-.1h-.6c-.4,0-.9,0-1.3-.1h-4.9c-.5,0-1,0-1.6,.1h-.7c-.4,0-.9,0-1.3,.1-.3,0-.5,0-.8,.1-.4,0-.8,.1-1.3,.1-.3,0-.5,0-.8,.1-.4,0-.8,.1-1.3,.1-.2,0-.5,.1-.7,.1-.5,.1-.9,.1-1.4,.2-.2,0-.4,.1-.6,.1l-1.8,.3h-.2c-.7,.1-1.3,.2-2,.4-.2,0-.3,.1-.5,.1l-1.5,.3c-.2,.1-.5,.1-.7,.2-.4,.1-.9,.2-1.3,.3-.2,.1-.5,.1-.7,.2l-1.2,.3c-.3,.1-.5,.1-.8,.2-.4,.1-.8,.2-1.2,.4-.2,.1-.5,.1-.7,.2-.4,.1-.9,.3-1.3,.4-.2,.1-.4,.1-.6,.2-.7,.2-1.3,.4-2,.7-7.6,2.8-14.6,6.5-20.9,11.1-1.1,.8-2.3,1.7-3.3,2.5-.5,.4-1.1,.9-1.6,1.3-1.1,.9-2.1,1.8-3.1,2.8-1,.9-2,1.9-3,2.9-.5,.5-1,1-1.4,1.5l-2.1,2.4c-.7,.8-1.3,1.5-1.9,2.3s-1.2,1.5-1.8,2.3c-1.5,2-2.9,4-4.1,6.1-.7,1.2-1.4,2.3-2.1,3.5-1.3,2.4-2.5,4.8-3.6,7.4-.4,.8-.7,1.6-1,2.4-.9,2.4-1.8,4.8-2.5,7.2-.2,.8-.5,1.6-.7,2.4-.3,1.1-.6,2.1-.8,3.2-.2,.8-.4,1.6-.5,2.4-.3,1.3-.5,2.5-.7,3.8-.2,1.5-.4,2.9-.6,4.4-.1,.7-.1,1.4-.2,2.1-.1,1.4-.2,2.8-.2,4.2v2.1c0,4.2,.3,8.4,.9,12.6,.2,1.4,.5,2.8,.7,4.2,.8,4.2,2,8.4,3.5,12.6l80.4-29.2,80.4-29.2c0-.3-.3-1-.5-1.6h0Z" fill="#fff"/></g><path d="M381,112.8l-160.7,58.5-29.2-80.4,125-45.5c19.7-7.2,41.5,3,48.7,22.7l16.2,44.7h0Z" fill="#fff"/></g></g></g></svg>