<svg id="Group_713" data-name="Group 713" xmlns="http://www.w3.org/2000/svg" width="21.399" height="21.04" viewBox="0 0 21.399 21.04">
  <path id="Path_2141" data-name="Path 2141" d="M191.455,36.813l7.127-7.253a.638.638,0,0,0,.15-.216.652.652,0,0,0,0-.517.639.639,0,0,0-.15-.216l-1.872-1.9a.635.635,0,0,0-.937,0l-9.7,9.823a.651.651,0,0,0-.15.216.662.662,0,0,0,0,.517.651.651,0,0,0,.15.216l9.7,9.855a.634.634,0,0,0,.937,0l1.872-1.9a.638.638,0,0,0,.15-.216.652.652,0,0,0,0-.517.639.639,0,0,0-.15-.216l-7.127-7.222a.289.289,0,0,1,0-.459Z" transform="translate(-185.875 -26.508)" fill="#172957"/>
  <path id="Path_2142" data-name="Path 2142" d="M182.388,36.813l7.128-7.253a.651.651,0,0,0,.15-.216.662.662,0,0,0,0-.517.651.651,0,0,0-.15-.216l-1.873-1.9a.633.633,0,0,0-.936,0l-9.7,9.823a.638.638,0,0,0-.15.216.652.652,0,0,0,0,.517.638.638,0,0,0,.15.216l9.7,9.855a.646.646,0,0,0,.212.153.635.635,0,0,0,.724-.153l1.873-1.9a.651.651,0,0,0,.15-.216.662.662,0,0,0,0-.517.651.651,0,0,0-.15-.216l-7.128-7.222a.336.336,0,0,1,0-.459Z" transform="translate(-168.32 -26.508)" fill="#172957"/>
</svg>
