<svg xmlns="http://www.w3.org/2000/svg" xmlns:xlink="http://www.w3.org/1999/xlink" width="90" height="72" viewBox="0 0 90 72">
  <defs>
    <filter id="Path_2083" x="0" y="0" width="90" height="72" filterUnits="userSpaceOnUse">
      <feOffset dy="3" input="SourceAlpha"/>
      <feGaussianBlur stdDeviation="3" result="blur"/>
      <feFlood flood-opacity="0.161"/>
      <feComposite operator="in" in2="blur"/>
      <feComposite in="SourceGraphic"/>
    </filter>
  </defs>
  <g transform="matrix(1, 0, 0, 1, 0, 0)" filter="url(#Path_2083)">
    <path id="Path_2083-2" data-name="Path 2083" d="M67.2,0a4.583,4.583,0,0,1,3,1.2C71.4,2.4,72,3,72,4.8v45a4.583,4.583,0,0,1-1.2,3c-1.2.6-1.8,1.2-3.6,1.2H4.8c-1.8,0-2.4-.6-3.6-1.2C.6,51.6,0,51,0,49.2V4.8a4.583,4.583,0,0,1,1.2-3C2.4.6,3,0,4.8,0ZM20.4,10.8A6.813,6.813,0,0,0,15.6,9a6.813,6.813,0,0,0-4.8,1.8A6.813,6.813,0,0,0,9,15.6a6.813,6.813,0,0,0,1.8,4.8,6.813,6.813,0,0,0,4.8,1.8,6.813,6.813,0,0,0,4.8-1.8,6.813,6.813,0,0,0,1.8-4.8A6.813,6.813,0,0,0,20.4,10.8ZM63,45,45,18,28.8,39,18,31.2,9,45Z" transform="translate(9 6)" fill="#4b84f6"/>
  </g>
</svg>
