<svg width="16" height="15" viewBox="0 0 16 15" fill="none" xmlns="http://www.w3.org/2000/svg">
<path d="M10.7917 14.917C10.5139 15.0281 10.2569 14.9934 10.0208 14.8128C9.78473 14.6323 9.66667 14.3823 9.66667 14.0628C9.66667 13.9101 9.71195 13.7748 9.8025 13.657C9.89306 13.5392 10.0075 13.4523 10.1458 13.3962C11.2569 12.9517 12.1494 12.2434 12.8233 11.2712C13.4972 10.299 13.8339 9.20173 13.8333 7.97951C13.8333 6.75729 13.4964 5.66006 12.8225 4.68784C12.1486 3.71562 11.2564 3.00729 10.1458 2.56284C9.99306 2.50729 9.875 2.41701 9.79167 2.29201C9.70834 2.16701 9.66667 2.02812 9.66667 1.87534C9.66667 1.56979 9.78473 1.32673 10.0208 1.14617C10.2569 0.965619 10.5139 0.930897 10.7917 1.04201C12.2083 1.61145 13.3472 2.52117 14.2083 3.77117C15.0694 5.02117 15.5 6.42395 15.5 7.97951C15.5 9.53506 15.0694 10.9378 14.2083 12.1878C13.3472 13.4378 12.2083 14.3476 10.7917 14.917ZM1.33334 10.5003C1.09723 10.5003 0.89917 10.4203 0.739169 10.2603C0.579169 10.1003 0.499447 9.90256 0.500003 9.66701V6.33367C0.500003 6.09756 0.580003 5.89951 0.740003 5.73951C0.900003 5.57951 1.09778 5.49979 1.33334 5.50034H3.83334L6.58334 2.75034C6.84723 2.48645 7.14945 2.42729 7.49 2.57284C7.83056 2.7184 8.00056 2.97895 8 3.35451V12.6462C8 13.0212 7.82973 13.2817 7.48917 13.4278C7.14861 13.574 6.84667 13.5148 6.58334 13.2503L3.83334 10.5003H1.33334ZM9.66667 11.3337V4.62534C10.2917 4.91701 10.7953 5.3684 11.1775 5.97951C11.5597 6.59062 11.7506 7.26423 11.75 8.00034C11.75 8.73645 11.5589 9.40312 11.1767 10.0003C10.7944 10.5976 10.2911 11.042 9.66667 11.3337Z" fill="#172957"/>
</svg>
