<svg id="Group_724" data-name="Group 724" xmlns="http://www.w3.org/2000/svg" width="21.898" height="38.467" viewBox="0 0 21.898 38.467">
  <path id="Path_2147" data-name="Path 2147" d="M100.592,64.436h-5.22a1.385,1.385,0,0,1-1.527-1.21V27.2a1.431,1.431,0,0,1,1.527-1.21h5.22a1.385,1.385,0,0,1,1.527,1.21v36.03a1.473,1.473,0,0,1-1.527,1.21Z" transform="translate(-93.845 -25.978)" fill="#172957"/>
  <path id="Path_2148" data-name="Path 2148" d="M108.914,64.436h-5.22a1.382,1.382,0,0,1-1.527-1.21V27.2a1.429,1.429,0,0,1,1.527-1.21h5.22a1.386,1.386,0,0,1,1.527,1.21v36.03a1.43,1.43,0,0,1-1.527,1.21Z" transform="translate(-88.544 -25.978)" fill="#172957"/>
</svg>
