<svg xmlns="http://www.w3.org/2000/svg" xmlns:xlink="http://www.w3.org/1999/xlink" width="30" height="30" viewBox="0 0 30 30">
  <defs>
    <filter id="Path_2171" x="0" y="0" width="30" height="30" filterUnits="userSpaceOnUse">
      <feOffset dy="1" input="SourceAlpha"/>
      <feGaussianBlur stdDeviation="1" result="blur"/>
      <feFlood flood-opacity="0.161"/>
      <feComposite operator="in" in2="blur"/>
      <feComposite in="SourceGraphic"/>
    </filter>
  </defs>
  <g id="Group_765" data-name="Group 765" transform="translate(122.708 -5.146)">
    <g id="Group_766" data-name="Group 766" transform="translate(-119.708 7.146)">
      <g transform="matrix(1, 0, 0, 1, -3, -2)" filter="url(#Path_2171)">
        <path id="Path_2171-2" data-name="Path 2171" d="M13.146,2.871A10.275,10.275,0,1,1,2.871,13.146,10.305,10.305,0,0,1,13.146,2.871Zm0-1.725a12,12,0,1,0,12,12A12.028,12.028,0,0,0,13.146,1.146Z" transform="translate(1.85 0.85)" fill="#172957"/>
      </g>
      <path id="Path_2172" data-name="Path 2172" d="M12.5,13.3a.786.786,0,0,1-.8-.8V4.792a.8.8,0,1,1,1.6,0V12.5A.786.786,0,0,1,12.5,13.3Z" transform="translate(-0.5 -1.146)" fill="#172957"/>
      <path id="Path_2173" data-name="Path 2173" d="M12.5,13.3a.691.691,0,0,1-.556-.243.817.817,0,0,1,0-1.146l4.028-4.028a.81.81,0,0,1,1.146,1.146l-4.063,4.028A.69.69,0,0,1,12.5,13.3Z" transform="translate(-0.346 -0.654)" fill="#172957"/>
    </g>
  </g>
</svg>
