<svg id="Group_803" data-name="Group 803" xmlns="http://www.w3.org/2000/svg" width="27.366" height="27.51" viewBox="0 0 27.366 27.51">
  <path id="Path_2185" data-name="Path 2185" d="M6.757,5.618v4.37H2.429V5.618Zm.708-1.457H1.721a.746.746,0,0,0-.749.749V10.7a.746.746,0,0,0,.749.749H7.465a.746.746,0,0,0,.749-.749V4.91A.746.746,0,0,0,7.465,4.161Z" transform="translate(-0.972 -0.832)" fill="#f58e65"/>
  <path id="Path_2186" data-name="Path 2186" d="M6.757,13.512v4.37H2.429v-4.37Zm.708-1.457H1.721a.746.746,0,0,0-.749.749V18.59a.746.746,0,0,0,.749.749H7.465a.746.746,0,0,0,.749-.749V12.8A.746.746,0,0,0,7.465,12.056Z" transform="translate(-0.972 -0.277)" fill="#f58e65"/>
  <path id="Path_2187" data-name="Path 2187" d="M6.757,21.445v4.37H2.429v-4.37Zm.708-1.457H1.721a.746.746,0,0,0-.749.749v5.743a.746.746,0,0,0,.749.749H7.465a.746.746,0,0,0,.749-.749V20.7A.738.738,0,0,0,7.465,19.989Z" transform="translate(-0.972 0.279)" fill="#f58e65"/>
  <path id="Path_2188" data-name="Path 2188" d="M14.246,2.756,16.16,6.668,12.29,8.583,10.375,4.671Zm.333-1.706a.98.98,0,0,0-.333.083L9.126,3.672a.747.747,0,0,0-.333,1l2.58,5.161a.741.741,0,0,0,.666.416.979.979,0,0,0,.333-.083l5.119-2.539a.747.747,0,0,0,.333-1l-2.58-5.161A.741.741,0,0,0,14.578,1.05Z" transform="translate(-0.428 -1.05)" fill="#f58e65"/>
  <path id="Path_2189" data-name="Path 2189" d="M14.921,13.512v4.37H10.634v-4.37Zm.749-1.457H9.927a.746.746,0,0,0-.749.749V18.59a.746.746,0,0,0,.749.749H15.67a.746.746,0,0,0,.749-.749V12.8A.8.8,0,0,0,15.67,12.056Z" transform="translate(-0.396 -0.277)" fill="#f58e65"/>
  <path id="Path_2190" data-name="Path 2190" d="M14.921,21.446v4.37H10.634v-4.37Zm.749-1.457H9.927a.746.746,0,0,0-.749.749v5.743a.746.746,0,0,0,.749.749H15.67a.746.746,0,0,0,.749-.749V20.7A.8.8,0,0,0,15.67,19.989Z" transform="translate(-0.396 0.279)" fill="#f58e65"/>
  <path id="Path_2191" data-name="Path 2191" d="M20.734,3.723l4.2.832L24.064,8.8l-4.2-.874ZM20.152,2.1a.716.716,0,0,0-.708.583l-1.165,5.7a.725.725,0,0,0,.583.874l5.618,1.165h.166a.716.716,0,0,0,.708-.583l1.165-5.66a.725.725,0,0,0-.583-.874L20.318,2.142C20.277,2.142,20.193,2.1,20.152,2.1Z" transform="translate(0.241 -0.976)" fill="#f58e65"/>
  <path id="Path_2192" data-name="Path 2192" d="M21.985,11.9l3.454,2.58-2.622,3.454-3.454-2.58ZM21.86,10.15a.675.675,0,0,0-.583.291l-3.5,4.62a.771.771,0,0,0,.125,1.04l4.578,3.454a.873.873,0,0,0,.458.167.675.675,0,0,0,.583-.291l3.5-4.62a.771.771,0,0,0-.125-1.04l-4.578-3.454A1.235,1.235,0,0,0,21.86,10.15Z" transform="translate(0.197 -0.411)" fill="#f58e65"/>
  <path id="Path_2193" data-name="Path 2193" d="M23.127,21.446v4.37H18.84v-4.37Zm.708-1.457h-5.7a.746.746,0,0,0-.749.749v5.743a.746.746,0,0,0,.749.749h5.743a.746.746,0,0,0,.749-.749V20.7A.809.809,0,0,0,23.834,19.989Z" transform="translate(0.18 0.279)" fill="#f58e65"/>
</svg>
