<svg xmlns="http://www.w3.org/2000/svg" xmlns:xlink="http://www.w3.org/1999/xlink" width="30" height="30" viewBox="0 0 30 30">
  <defs>
    <filter id="Path_2170" x="0" y="0" width="30" height="30" filterUnits="userSpaceOnUse">
      <feOffset dy="1" input="SourceAlpha"/>
      <feGaussianBlur stdDeviation="1" result="blur"/>
      <feFlood flood-opacity="0.161"/>
      <feComposite operator="in" in2="blur"/>
      <feComposite in="SourceGraphic"/>
    </filter>
  </defs>
  <g transform="matrix(1, 0, 0, 1, 0, 0)" filter="url(#Path_2170)">
    <path id="Path_2170-2" data-name="Path 2170" d="M12,6.667A5.333,5.333,0,1,0,17.333,12,5.332,5.332,0,0,0,12,6.667ZM2.667,16H0v5.333A2.675,2.675,0,0,0,2.667,24H8V21.333H2.667Zm0-13.333H8V0H2.667A2.675,2.675,0,0,0,0,2.667V8H2.667ZM21.333,0H16V2.667h5.333V8H24V2.667A2.675,2.675,0,0,0,21.333,0Zm0,21.333H16V24h5.333A2.675,2.675,0,0,0,24,21.333V16H21.333Z" transform="translate(3 2)" fill="#172957"/>
  </g>
</svg>
