<svg xmlns="http://www.w3.org/2000/svg" width="24" height="31.888" viewBox="0 0 24 31.888">
  <g id="Group_874" data-name="Group 874" transform="translate(0)">
    <path id="Path_2204" data-name="Path 2204" d="M12.945,6.378a2.392,2.392,0,1,0-1.691-.7A2.392,2.392,0,0,0,12.945,6.378Zm0,1.594A3.986,3.986,0,1,0,10.127,6.8a3.986,3.986,0,0,0,2.818,1.167Z" transform="translate(-0.934)" fill="#172957" fill-rule="evenodd"/>
    <path id="Path_2205" data-name="Path 2205" d="M7.662,11.411a1.594,1.594,0,0,1,1.3,1.567V29.5a.8.8,0,0,0,.8.8h.069a.8.8,0,0,0,.794-.726l.731-8.044a1.594,1.594,0,0,1,3.189,0l.731,8.044a.8.8,0,0,0,.794.726h.069a.8.8,0,0,0,.8-.8V13.008a1.595,1.595,0,0,1,1.3-1.567c1.4-.266,2.88-.635,4.507-1.11A.8.8,0,1,0,22.287,8.8a32.156,32.156,0,0,1-9.34,1.563A35.05,35.05,0,0,1,3.591,8.8a.8.8,0,1,0-.426,1.536c1.621.45,3.1.81,4.5,1.076ZM12.13,30.136a2.392,2.392,0,0,1-2.3,1.752H9.755A2.392,2.392,0,0,1,7.364,29.5V12.978c-1.456-.277-2.978-.651-4.625-1.108A2.392,2.392,0,1,1,4.017,7.262a33.525,33.525,0,0,0,8.937,1.507,30.607,30.607,0,0,0,8.887-1.5,2.392,2.392,0,1,1,1.338,4.592c-1.661.485-3.193.867-4.655,1.146V29.5a2.392,2.392,0,0,1-2.392,2.392h-.069a2.392,2.392,0,0,1-2.382-2.175l-.731-8.044q-.006-.071-.006-.141c0,.047,0,.093-.006.14l-.732,8.044a2.431,2.431,0,0,1-.076.424Z" transform="translate(-0.934)" fill="#172957" fill-rule="evenodd"/>
  </g>
</svg>
